<svg width="14" height="14" viewBox="0 0 14 14" fill="none" xmlns="http://www.w3.org/2000/svg">
<path id="Combined Shape" d="M11.8907 8.80174L11.2047 8.49854L11.8907 8.80174ZM11.8696 9.1833L11.159 9.42312L11.8696 9.1833ZM12.7315 11.7371L13.4421 11.4973L12.7315 11.7371ZM12.1014 12.3719L11.8668 13.0843L12.1014 12.3719ZM9.1265 11.5359L9.42445 12.2242L9.1265 11.5359ZM9.50011 11.5155L9.26557 12.2279L9.50011 11.5155ZM6.97754 12.7287C7.84599 12.7287 8.67415 12.549 9.42445 12.2242L8.82854 10.8476C8.26317 11.0924 7.63757 11.2287 6.97754 11.2287V12.7287ZM0.869141 6.68613C0.869141 10.0321 3.61273 12.7287 6.97754 12.7287V11.2287C4.42362 11.2287 2.36914 9.18622 2.36914 6.68613H0.869141ZM6.97754 0.643555C3.61273 0.643555 0.869141 3.3402 0.869141 6.68613H2.36914C2.36914 4.18605 4.42362 2.14355 6.97754 2.14355V0.643555ZM13.0859 6.68613C13.0859 3.3402 10.3423 0.643555 6.97754 0.643555V2.14355C9.53145 2.14355 11.5859 4.18605 11.5859 6.68613H13.0859ZM12.5767 9.10494C12.9044 8.36351 13.0859 7.54489 13.0859 6.68613H11.5859C11.5859 7.33171 11.4498 7.94412 11.2047 8.49854L12.5767 9.10494ZM11.159 9.42312L12.0209 11.9769L13.4421 11.4973L12.5803 8.94348L11.159 9.42312ZM12.3359 11.6595L9.73466 10.8031L9.26557 12.2279L11.8668 13.0843L12.3359 11.6595ZM11.2047 8.49854C11.082 8.77622 11.052 9.10604 11.159 9.42312L12.5803 8.94348C12.6029 9.01071 12.5928 9.06843 12.5767 9.10494L11.2047 8.49854ZM12.0209 11.9769C11.955 11.7817 12.1402 11.5951 12.3359 11.6595L11.8668 13.0843C12.8452 13.4064 13.7715 12.4733 13.4421 11.4973L12.0209 11.9769ZM9.42445 12.2242C9.38798 12.24 9.33134 12.2495 9.26557 12.2279L9.73466 10.8031C9.42399 10.7008 9.10163 10.7294 8.82854 10.8476L9.42445 12.2242Z" fill="#999999"/>
</svg>
