<svg width="21" height="16" viewBox="0 0 21 16" fill="none" xmlns="http://www.w3.org/2000/svg">
<g id="Group 174">
<path id="Ellipse 10" d="M19.4881 8.03444C19.4881 8.27617 19.3108 8.82246 18.8139 9.58737C18.3411 10.3154 17.645 11.1397 16.7754 11.9144C15.0257 13.4731 12.6662 14.7515 10.119 14.7515C7.57187 14.7515 5.21239 13.4731 3.46268 11.9144C2.59306 11.1397 1.89703 10.3154 1.42417 9.58737C0.927338 8.82246 0.75 8.27617 0.75 8.03444C0.75 7.79272 0.927338 7.24642 1.42417 6.48151C1.89703 5.75351 2.59306 4.92919 3.46268 4.15449C5.21239 2.59579 7.57187 1.31738 10.119 1.31738C12.6662 1.31738 15.0257 2.59579 16.7754 4.15449C17.645 4.92919 18.3411 5.75351 18.8139 6.48151C19.3108 7.24642 19.4881 7.79272 19.4881 8.03444Z" stroke="#999999" stroke-width="1.5"/>
<path id="Ellipse 11" d="M13.2614 8.03431C13.2614 9.653 11.8844 11.0178 10.1195 11.0178C8.35456 11.0178 6.97754 9.653 6.97754 8.03431C6.97754 6.41562 8.35456 5.05078 10.1195 5.05078C11.8844 5.05078 13.2614 6.41562 13.2614 8.03431Z" stroke="#999999" stroke-width="1.5"/>
</g>
</svg>
